<?xml version="1.0" standalone="no"?><!DOCTYPE svg PUBLIC "-//W3C//DTD SVG 1.1//EN" "http://www.w3.org/Graphics/SVG/1.1/DTD/svg11.dtd"><svg t="1719285854691" class="icon" viewBox="0 0 1024 1024" version="1.1" xmlns="http://www.w3.org/2000/svg" p-id="15128" xmlns:xlink="http://www.w3.org/1999/xlink" width="200" height="200"><path d="M468.552413 1022.296173a468.552413 468.552413 0 0 1 0-937.104825 42.595674 42.595674 0 0 1 42.595674 42.595674v383.361065h383.361064a42.595674 42.595674 0 0 1 42.595674 42.595673 468.552413 468.552413 0 0 1-468.552412 468.552413zM425.956739 172.938436a383.361065 383.361065 0 1 0 423.400998 423.400998H468.552413a42.595674 42.595674 0 0 1-42.595674-42.595674z" fill="#3B11D7" p-id="15129"></path><path d="M979.700499 453.643927h-366.748752a42.595674 42.595674 0 0 1-42.595674-42.595674V42.595674a42.595674 42.595674 0 0 1 42.595674-42.595674A409.770383 409.770383 0 0 1 1022.296173 409.344426a42.595674 42.595674 0 0 1-42.595674 44.299501z m-324.153078-85.191348h278.575707a324.579035 324.579035 0 0 0-278.575707-278.575707z" fill="#F34E79" p-id="15130"></path></svg>